<svg xmlns="http://www.w3.org/2000/svg" viewBox="0 0 459.57 148.71"><g id="Calque_2" data-name="Calque 2"><g id="Calque_2-2" data-name="Calque 2"><path d="M414.79,142.89q-7.69-4.83-9-14.61h2.82a16.49,16.49,0,0,0,7.55,12.53q6.69,4.49,19,4.49A24.84,24.84,0,0,0,446.09,143a17.74,17.74,0,0,0,7.27-6.1,14.59,14.59,0,0,0,2.53-8.24,10.86,10.86,0,0,0-2.89-7.84,18.9,18.9,0,0,0-7.19-4.62A116.16,116.16,0,0,0,434,112.74a107.48,107.48,0,0,1-13.47-4,21.91,21.91,0,0,1-8.74-6.17q-3.6-4.14-3.6-11a14.68,14.68,0,0,1,3.1-9A21.62,21.62,0,0,1,419.86,76a29.1,29.1,0,0,1,12.2-2.47q11.56,0,18.62,5.49t7.61,15.28h-2.82a18,18,0,0,0-6.41-13.2q-6-5.16-17-5.16A26,26,0,0,0,421.34,78a19,19,0,0,0-7.54,5.76,12.65,12.65,0,0,0-2.75,7.77,13.72,13.72,0,0,0,3.24,9.52,19.71,19.71,0,0,0,8,5.36q4.73,1.74,12.62,3.75t12.62,3.89a20,20,0,0,1,7.83,5.29,13.28,13.28,0,0,1,3.24,9.31,16.33,16.33,0,0,1-3.1,9.72,20.92,20.92,0,0,1-8.46,6.83,28.26,28.26,0,0,1-12,2.48Q422.48,147.71,414.79,142.89Z" fill="#1d1d1b" stroke="#1d1d1b" stroke-linecap="round" stroke-linejoin="round" stroke-width="2"/><circle cx="92.5" cy="54.88" r="1.69" fill="#1d1d1b" stroke="#1d1d1b" stroke-linecap="round" stroke-linejoin="round" stroke-width="2"/><path d="M38.5,146.5A37.5,37.5,0,1,1,76,109,37.54,37.54,0,0,1,38.5,146.5Zm0-72A34.5,34.5,0,1,0,73,109,34.54,34.54,0,0,0,38.5,74.5Z" fill="#1d1d1b" stroke="#1d1d1b" stroke-linecap="round" stroke-linejoin="round" stroke-width="2"/><rect x="1" y="1" width="3" height="108" fill="#1d1d1b" stroke="#1d1d1b" stroke-linecap="round" stroke-linejoin="round" stroke-width="2"/><rect x="91" y="73" width="3" height="72" fill="#1d1d1b" stroke="#1d1d1b" stroke-linecap="round" stroke-linejoin="round" stroke-width="2"/><path d="M146.5,146.5A37.5,37.5,0,1,1,184,109,37.54,37.54,0,0,1,146.5,146.5Zm0-72A34.5,34.5,0,1,0,181,109,34.54,34.54,0,0,0,146.5,74.5Z" fill="#1d1d1b" stroke="#1d1d1b" stroke-linecap="round" stroke-linejoin="round" stroke-width="2"/><path d="M236.5,146.5A37.54,37.54,0,0,1,199,109h3a34.54,34.54,0,0,0,34.5,34.5Z" fill="#1d1d1b" stroke="#1d1d1b" stroke-linecap="round" stroke-linejoin="round" stroke-width="2"/><rect x="199" y="1" width="3" height="108" fill="#1d1d1b" stroke="#1d1d1b" stroke-linecap="round" stroke-linejoin="round" stroke-width="2"/><path d="M281.28,147.71a38.71,38.71,0,0,1-4.92-.32,37.49,37.49,0,0,1-32.46-33.65l-.16-3.47a37.5,37.5,0,1,1,75-.07v1.5H246.81l.09,1.83a34.49,34.49,0,0,0,62.36,16.8c.88-1.23,1.36-1.79,1.65-2.13s.31-.36.73-1.44l2.8,1.08a6,6,0,0,1-1.25,2.31c-.27.32-.69.81-1.49,1.93a37.47,37.47,0,0,1-20.81,14.37A37.35,37.35,0,0,1,281.28,147.71Zm-34.51-39h68.94a34.5,34.5,0,0,0-68.94,0Z" fill="#1d1d1b" stroke="#1d1d1b" stroke-linecap="round" stroke-linejoin="round" stroke-width="2"/><path d="M391,145h-3V100a25.5,25.5,0,0,0-51,0v45h-3V100a28.5,28.5,0,0,1,57,0Z" fill="#1d1d1b" stroke="#1d1d1b" stroke-linecap="round" stroke-linejoin="round" stroke-width="2"/><rect x="334" y="73" width="3" height="27" fill="#1d1d1b" stroke="#1d1d1b" stroke-linecap="round" stroke-linejoin="round" stroke-width="2"/></g></g></svg>